<svg width="457" height="351" fill="none" xmlns="http://www.w3.org/2000/svg"><path fill-rule="evenodd" clip-rule="evenodd" d="M181.39 55.74l-2.84 4.87h-2.73l-.87 1.44h2.75l-6.07 10.38c-1.27 2.2-.37 4.25 2.07 4.25 1.22 0 2.53-.64 3.85-1.62l-.78 1.33h3.05l4.59-7.89c4.64-5.76 6.7-5.02 5.4-2.8l-3.93 6.73c-1.27 2.21-.37 4.25 2.06 4.25 1.8 0 3.8-1.37 5.7-3.2.14 1.85 1.67 3.2 4.09 3.2 3.42 0 6.82-2.64 9.31-5.5-.2-.41-.72-.87-1.12-1.04l-.2.23c-2.18 2.5-4.97 4.47-7.09 4.47-1.86 0-2.96-1.15-1.57-3.55l.3-.52c1.94.8 5.6.43 7.86-3.44l.44-.75c1.62-2.75.06-4.82-2.41-4.82-2.44 0-4.38 1.26-5.66 3.44l-2.93 4.97-.18.2c-2.17 2.5-4.3 4.47-5.63 4.47-.66 0-1.04-.46-.35-1.64l4.36-7.54c1.3-2.26.06-3.9-1.63-3.9-1.3 0-2.7.72-4.2 2.27l4.81-8.3h-3.02l-8.42 14.45-.17.18c-2.18 2.5-4.3 4.48-5.63 4.48-.67 0-1.05-.46-.35-1.64l6.47-11.15h2.47l.87-1.44h-2.5l2.85-4.87h-3.02zm-32.3 4.88l2.84-4.88h3.01l-2.84 4.87h2.5l-.87 1.44h-2.47l-6.47 11.16c-.7 1.17-.32 1.63.34 1.63 1.34 0 3.46-1.98 5.64-4.47l.15-.18 1.24-2.09 1.48-2.55c1.74-2.98 3.54-3.9 5.86-3.9 2.85 0 4.53 2.95 2.7 6.08l-2.84 4.84a6.53 6.53 0 004.55-2.2l.21-.23c.4.17.93.63 1.13 1.03a9.2 9.2 0 01-6.19 2.9h-.66c-3.27 4.08-8.62 3.34-8.61-.46-1.87 1.77-3.8 3.07-5.56 3.07-2.44 0-3.34-2.04-2.06-4.25l6.07-10.38h-2.76l.87-1.43h2.73zm10.79 6c1.03-1.75.56-2.95-.42-3.04-.77-.07-1.85.53-2.77 2.09l-1.45 2.44-2.3 3.92c-1.8 3.1 1.66 3.56 3.08 1.15l.03-.06c-.17-.28-.29-.63-.29-1 0-.98.78-1.78 1.77-1.78h.15l2.2-3.73zm43.31-.04c1.01-1.74.48-2.66-.49-2.6-.75.04-1.77.68-2.53 1.97l-1.95 3.36c1.14.4 3.08.46 4.53-1.98l.44-.75zm43.83-8.06c-1.71 1.52-1.86 3.21-.78 4.59l.26.34-.06.09c-1.33 1.85-3.1 4.33-5.05 6.6l-.2.23a6.54 6.54 0 01-4.56 2.2l2.84-4.84c1.83-3.13.15-6.08-2.7-6.08-2.32 0-4.12.91-5.86 3.9l-1.48 2.55-1.24 2.1-.15.17c-2.5 2.84-4.65 4.67-7.03 5.67l6.77-11.41H226c0-1.23-1.27-2.87-3.16-2.87-1.62 0-3.89 1.27-5.17 3.44l-4.23 7.23c-1.28 2.2-.38 4.25 2.06 4.25.84 0 1.85-.38 2.87-1l-.84 1.4c-4.06 1.23-6.62 2.86-6.62 5.1 0 2.87 4.44 3.47 6.62-.2l2.3-3.93a18.44 18.44 0 007.23-4.46c-.02 3.82 5.34 4.57 8.61.47h.67a9.2 9.2 0 006.18-2.9c1.45-1.66 2.58-3.15 5-6.39l.4.5c.38.48.52 1.08.17 1.68l-3.19 5.48c-1.28 2.21-.38 4.25 2.06 4.25 1.53 0 3.2-1 4.84-2.42-.05 1.38.89 2.42 2.62 2.42a5.8 5.8 0 002.88-1l-.85 1.4c-4.06 1.23-6.61 2.86-6.61 5.1 0 2.87 4.44 3.47 6.61-.2l2.3-3.93c2.46-.75 4.87-2.2 7.37-4.6.14 1.87 1.66 3.23 4.1 3.23 2.45 0 4.9-1.36 7-3.2-.12 3.91 5.3 4.71 8.6.59h.68c.94 0 2.17-.31 3.35-.86-.8 2.08-.06 3.47 1.66 3.47 1.66 0 3.52-1.5 4.97-2.87-.3 1.6.67 2.87 2.58 2.87 2.5 0 5.37-2.64 7.87-5.5 1.35-1.55 2.58-3.18 3.57-4.5l.73-.96c-.4 1.04-.6 2.36-.79 3.65-.37 2.56-.73 5.01-2.64 5.01-1.01 0-1.42-1.09-1.42-1.09l-1.89.98s.55 2.41 3.31 2.41c.27 0 .51-.03.77-.05l.07-.01.05-.01.04-.02c3.08-.4 6.13-2.8 8.39-5.42a1.9 1.9 0 00-1.13-1.03l-.2.23a18.85 18.85 0 01-3.63 3.24c.37-1.12.57-2.46.78-3.92.33-2.26.7-4.78 1.83-7.1l-2.26-1.2-.84 1.15c-1.42 1.96-3.64 5.03-5.87 7.6l-.2.23c-2.18 2.5-4.3 4.47-5.63 4.47-.67 0-1.05-.46-.35-1.63l6.44-11.16h-3.02l-5.37 9.26c-2.29 2.07-4.06 3.22-4.64 2.96-.7-.3-.1-1.28.3-1.92l.08-.15 5.9-10.15h-3.03l-4.73 8.1-.2.22a6.54 6.54 0 01-4.56 2.2l2.84-4.84c1.83-3.13.16-6.08-2.7-6.08-2.32 0-4.12.92-5.86 3.9l-1.48 2.55-1.24 2.1-.15.17c-2.18 2.5-4.97 4.47-7.08 4.47-1.86 0-2.97-1.14-1.57-3.55l.29-.52c1.94.8 5.6.43 7.87-3.44l.43-.75c1.63-2.75.06-4.82-2.4-4.82-2.45 0-4.4 1.27-5.67 3.45l-2.93 4.96-.17.2c-2.5 2.84-4.65 4.67-7.03 5.68l6.76-11.42h-1.77c0-1.23-1.27-2.87-3.16-2.87-1.63 0-3.89 1.27-5.17 3.44l-2.9 4.94-.2.23c-2.18 2.5-4.3 4.47-5.64 4.47-.67 0-1.04-.46-.35-1.63l3.02-5.22c1.05-1.81.55-2.87-.43-4.05l-1.69-2.01c-.43-.55-.43-1.15.18-1.72l-1.57-1.7zm-9.87 8.1c1.03-1.75.56-2.95-.42-3.04-.77-.07-1.84.53-2.77 2.09l-1.46 2.44-2.29 3.92c-1.8 3.1 1.66 3.56 3.08 1.15l.03-.06a1.95 1.95 0 01-.3-1c0-.98.8-1.78 1.78-1.78h.15l2.2-3.73zm49.73-3.04c.99.09 1.46 1.3.43 3.03l-2.2 3.73h-.15c-.99 0-1.77.8-1.77 1.78 0 .37.12.72.29 1l-.03.06c-1.42 2.41-4.88 1.95-3.08-1.15l2.3-3.92 1.45-2.44c.92-1.56 2-2.16 2.76-2.1zm-11.21 3c1.01-1.74.48-2.66-.49-2.6-.75.05-1.77.68-2.53 1.97l-1.95 3.36c1.14.4 3.08.46 4.53-1.98l.44-.75zm-52.89-2.4c1.02 0 1.68.89.85 2.4l-2.3 3.96c-1.83 2.9-3.66 4.3-4.93 4.3-.67 0-1.05-.46-.35-1.63l4.2-7.26c.72-1.22 1.74-1.76 2.53-1.77zm39.77 2.4c.83-1.51.18-2.4-.85-2.4-.8 0-1.8.55-2.52 1.77l-4.2 7.26c-.7 1.17-.33 1.63.34 1.63 1.28 0 3.1-1.4 4.94-4.3l2.29-3.96zM216.37 79.1c-2.3.89-3.02 1.78-3.02 2.55 0 .8 1.01.97 1.65-.14l1.37-2.4v-.01zm38.92 0zm0 0l-1.36 2.4c-.64 1.13-1.66.95-1.66.15 0-.77.73-1.66 3.02-2.55zM100.64 67.48h28.92v1.95h-28.92v-1.95zm255.95 0h-28.92v1.95h28.92v-1.95z" fill="#766458"/><path fill-rule="evenodd" clip-rule="evenodd" d="M194.44 37.01v7.74h-20.82V0h20.82v7.67h-13.2v10.8h10.53v7.67h-10.53v10.87h13.2zm21.35 7.74V37h-10.6V0h-7.62v44.75h18.22zm106.53 0V37h-13.2V26.14h10.53v-7.67h-10.53V7.67h13.2V0H301.5v44.75h20.82zM297.07 0h-7.55l-6.79 21.6L275.94 0h-7.55v44.75H276v-22l2.98 11.39h7.42l3.05-11.38v21.99h7.62V0zm-39.45 7.67h-5.53v29.34h5.53V7.67zm7.68-2.94A4.74 4.74 0 00260.6 0h-11.43a4.7 4.7 0 00-4.7 4.73v35.29c0 2.55 2.1 4.73 4.7 4.73h11.43c2.54 0 4.7-2.18 4.7-4.73V4.73zm-32.71 23.52l7.67-1.79v13.55a4.79 4.79 0 01-4.7 4.73h-11.42c-2.6 0-4.7-2.17-4.7-4.73V4.73a4.7 4.7 0 014.7-4.73h11.43c2.54 0 4.7 2.1 4.7 4.73v9.08l-7.68 1.79V7.67h-5.53v29.34h5.53v-8.76zM169.86 0h-7.68l-.57 37.01h-.76l-4.89-37h-7.55l-4.76 37h-.83l-.63-37h-7.62l1.15 44.74h14.53l1.97-18.48 1.96 18.48h14.47L169.85 0z" fill="#81B3D3"/><path fill-rule="evenodd" clip-rule="evenodd" d="M9.29 189.76c.08.08.12.16.12.24.07 0 .15.03.23.11a51.98 51.98 0 007.08 6.5 16.19 16.19 0 009.06 3.14c.08 0 .15.04.23.12h.35c.08 0 .16.03.23.11h1.28c.39-.08.73-.15 1.04-.23a9.69 9.69 0 003.49-1.4 7.72 7.72 0 002.67-2.55l.23-.46.23-.47c.16-.54.27-1.04.35-1.5.08-.47.12-.9.12-1.28 0-2.1-.93-3.84-2.79-5.23a19.95 19.95 0 00-5.8-3.37c-.8-.3-1.61-.53-2.44-.7-.73-.22-1.47-.4-2.21-.58h-.23c-.08-.07-.16-.11-.23-.11a38.02 38.02 0 01-10.69-4.41 15.94 15.94 0 01-6.85-8.95c-.24-.8-.47-1.62-.7-2.44-.16-.88-.27-1.77-.34-2.67a3.41 3.41 0 01-.12-.81v-2.79c.08-.62.2-1.24.35-1.85.24-1.59.63-3.14 1.16-4.65a17.61 17.61 0 012.09-4.18c2.48-4.1 5.65-7.05 9.52-8.83a29.62 29.62 0 0112.31-2.67c1 0 2.01.08 3.02.24 1.09.07 2.17.19 3.25.34 2.83.48 5.59 1.26 8.25 2.33a44.3 44.3 0 017.66 3.83l-6.38 14.28a44.7 44.7 0 00-6.63-4.06 16.63 16.63 0 00-7.54-1.74h-.93a9.2 9.2 0 00-5 2.43c-1.54 1.32-2.32 2.75-2.32 4.3v.7c.08.23.2.46.35.7.15.54.43 1.04.81 1.5a10 10 0 001.28 1.28c.85.7 2.09 1.36 3.72 1.98 1.62.54 3.33 1.08 5.1 1.62l4.3 1.16c1.4.31 2.56.62 3.49.93 4.33 1.55 7.58 4.14 9.75 7.78a22.38 22.38 0 013.37 11.38v.58c0 .47-.04.93-.12 1.4v1.28a28.67 28.67 0 01-3.95 11.5 21.47 21.47 0 01-8.47 8.35 37.1 37.1 0 01-4.07 1.63c-1.38.38-2.77.73-4.18 1.05-1.15.23-2.31.38-3.48.46-1.12.15-2.24.23-3.37.23h-1.28a38.96 38.96 0 01-13.7-3.02A42.69 42.69 0 010 204.63l9.29-14.87zm215.9-46.24a36.76 36.76 0 00-14.87 15.1 43.79 43.79 0 00-4.18 11.96 23.47 23.47 0 00-.47 3.13c-.07 1-.11 2.01-.11 3.02 0 6.81 1.85 13.4 5.57 19.74a37.92 37.92 0 0022.76 17.42 47 47 0 007.9 1.4h1.5c.55.07 1.1.1 1.64.1 7.58 0 14.82-2.04 21.71-6.15a37.35 37.35 0 0015.21-17.53c.61-1.51 1.11-3.06 1.51-4.65.46-1.59.77-3.22.93-4.87.16-.78.23-1.55.23-2.33.08-.85.12-1.66.12-2.44 0-6.42-1.5-12.57-4.53-18.46a36.16 36.16 0 00-12.77-14.28 39.42 39.42 0 00-8.13-3.95c-2.75-1-5.59-1.7-8.48-2.1l-2.9-.22c-.93-.08-1.86-.12-2.79-.12a40.73 40.73 0 00-19.86 5.23zm73.14 70.08v-73.98h19.5l27.88 37.98a37.2 37.2 0 011.97 3.48c.7 1.17 1.37 2.38 1.98 3.6l1.4 3.02c.45 1 .92 1.97 1.38 2.9a23.3 23.3 0 00-.34-2.44l-.24-2.43a91.3 91.3 0 01-.46-9.76v-36.35h19.4v73.98h-19.4l-28.1-38.2a21.62 21.62 0 01-2.21-3.26 65.9 65.9 0 01-1.97-4.06c-.45-.98-.92-1.95-1.4-2.9-.36-.95-.75-1.88-1.16-2.8.39 2.4.7 4.84.93 7.32.23 2.48.34 4.96.35 7.43v36.47h-19.51zm107.46-73.98l-25.43 73.98h19.97l3.83-13.36h28.57l3.72 13.36h20.2L431 139.62h-25.2zm2.67 46.34l7.55-24.5c.3-1.08.58-2.16.81-3.26.32-1.1.59-2.23.81-3.36a.9.9 0 00.12-.35c0-.16.04-.31.12-.47.07-.46.15-.89.23-1.28.15-.46.27-.89.35-1.27l.23 1.28c.08.38.2.8.35 1.27.24 1.29.51 2.56.81 3.83.38 1.2.76 2.4 1.16 3.6l7.55 24.5h-20.09zm-145.3-.75c.23-.78.42-1.6.58-2.44.23-.85.39-1.7.46-2.56.08-.54.12-1.08.12-1.62a8.46 8.46 0 000-2.9v-1.4a27.38 27.38 0 00-3.02-9.64 17.79 17.79 0 00-6.74-7.2 30.79 30.79 0 00-4.64-1.86c-.77-.15-1.54-.27-2.32-.34-.77-.16-1.55-.24-2.33-.24a17.9 17.9 0 00-10.91 3.72 19.32 19.32 0 00-6.97 9.87l-.23.46v.47c-.24.72-.44 1.46-.58 2.2-.16.7-.31 1.44-.47 2.21l-.23 1.63V178c0 .23.04.5.12.8.23 4.11 1.47 8.02 3.71 11.74a16.39 16.39 0 009.53 7.2l1.39.46c.46.08.97.16 1.5.23l1.4.24h1.4c4.1 0 7.78-1.2 11.03-3.6a20.7 20.7 0 007.2-9.87zm-94 26.53c4.25-.93 8.2-2.63 11.84-5.11a32.03 32.03 0 0010.34-12.54 41.2 41.2 0 003.95-15.91v-2.9c0-.47-.04-.94-.12-1.4a40.3 40.3 0 00-4.06-15.33A30.47 30.47 0 00181 146.6a30.34 30.34 0 00-11.27-5.1 72.53 72.53 0 00-15.91-1.87h-25.09v73.98h23.81a80.46 80.46 0 0016.6-1.86zm-20.56-14.75c.23 0 .47.04.7.12h.81c.31 0 .58.04.81.11h3.14c.85-.07 1.66-.15 2.44-.23 2-.15 3.99-.5 5.92-1.05a17.04 17.04 0 005.23-2.43 15.46 15.46 0 005.45-7.2 25.73 25.73 0 001.86-9.64v-.93c0-.31-.03-.62-.11-.93a23.14 23.14 0 00-2.1-8.48 16.4 16.4 0 00-5.1-6.62 13.34 13.34 0 00-5.46-2.67c-1.98-.47-4-.74-6.04-.81h-7.55v40.76zm-79.9-57.37v73.98h45.4v-16.61H88.55v-12.54h24.04v-15.8H88.55v-12.89h25.55v-16.14H68.7zM351.03 336c-.11.3-.17.59-.17.88 0 .72.25 1.27.74 1.65.5.39 1.07.58 1.72.58-.02.38-.13.71-.3 1-.18.3-.41.55-.68.76-.27.22-.56.4-.86.54-.3.15-.58.27-.83.36l1.35 1.99.1-.05.03-.01.06-.03.18-.08a11.9 11.9 0 001.62-.9 5.7 5.7 0 002.14-2.6 6 6 0 00.46-2.36c0-.46-.07-.88-.2-1.29-.14-.4-.33-.75-.58-1.04-.29-.32-.64-.56-1.06-.73a3.43 3.43 0 00-1.3-.25 2.64 2.64 0 00-1.92.8c-.22.23-.39.5-.5.78zm7.67.88a2.47 2.47 0 01.67-1.67 2.6 2.6 0 011.92-.79c.45 0 .88.08 1.3.25.41.17.77.41 1.06.73.25.3.44.64.57 1.04.14.4.2.83.2 1.29a6 6 0 01-1.75 4.27 8.18 8.18 0 01-2.46 1.58l-.37.18-1.35-2c.25-.08.52-.2.82-.35.3-.14.6-.32.87-.54.26-.2.49-.46.67-.75.18-.3.28-.63.3-1.01-.62 0-1.23-.2-1.72-.58a1.96 1.96 0 01-.73-1.65zM93.98 279.04c.1-.29.17-.58.17-.87 0-.72-.25-1.27-.74-1.65a2.73 2.73 0 00-1.72-.57c.02-.39.12-.73.3-1.02.18-.29.4-.54.68-.76.27-.21.55-.39.86-.54.26-.13.54-.24.82-.35L93 271.3l-.37.16a13.56 13.56 0 00-1.62.9 6 6 0 00-2.6 4.97c0 .43.07.86.21 1.27.12.39.32.74.57 1.05.3.32.66.56 1.06.72.41.17.86.26 1.3.26.72 0 1.42-.28 1.92-.8.22-.22.4-.5.5-.79zm-7.67-.87a2.45 2.45 0 01-1.5 2.24c-.33.14-.7.22-1.1.22-.44 0-.88-.09-1.3-.25-.4-.17-.76-.41-1.05-.73a3.1 3.1 0 01-.58-1.05 4 4 0 01-.2-1.28 6 6 0 011.75-4.28c.25-.24.53-.47.85-.69a9.4 9.4 0 011.61-.89l.06-.02.32-.15 1.34 2c-.25.08-.52.2-.82.34-.3.15-.6.33-.86.54-.27.21-.5.47-.68.76-.18.3-.28.63-.3 1.01.65 0 1.23.2 1.72.58.5.38.74.93.74 1.65zm249.17 56.87h-3.82l11.88-20.64h3.78l-11.84 20.64zm-4 1.49c-1.24 0-2.18.98-2.18 2.22 0 1.23.94 2.18 2.18 2.18 1.23 0 2.22-.95 2.22-2.18a2.2 2.2 0 00-2.22-2.22zm-25.26-7.42l-1.1 1.9c.84 2.46 4.15 1.08 5.28-.88l1.81-3.12c1.35-2.3-1.63-3.96-6 2.1zm24 4.87a2.39 2.39 0 00-1.42-1.3l-.25.29a23.56 23.56 0 01-4.55 4.1c.48-1.41.72-3.12.99-4.96.41-2.86.87-6.05 2.28-8.99l-2.83-1.53-1 1.4c-1.78 2.48-4.59 6.4-7.4 9.68l.03.03a.44.44 0 01-.05-.03l-.25.3c-2.73 3.16-5.38 5.66-7.05 5.66-.84 0-1.64-.83-1.64-2.54v-1.56c2.66.32 5.46-1.42 7.24-4.5l1.01-1.75c3.52-6.03-2.22-8.03-6.07-4.5l5.38-9.34h-3.78l-10.78 18.7a3 3 0 00-.69-.46l-.25.29c-2.72 3.16-6.21 5.66-8.86 5.66-2.33 0-3.7-1.45-1.96-4.5l3.88-6.76c2.18-3.74 6.03-3.12 3.78.8l-.55.95h3.1l.54-.95c2.03-3.48.07-6.1-3.02-6.1-3.05 0-5.48 1.6-7.08 4.36l-3.72 6.38-.06-.04-.17-.1-.26.3c-2.72 3.16-5.37 5.67-7.05 5.67-.83 0-1.3-.58-.43-2.07l8.07-14.14h-3.79l-6.71 11.74c-2.88 2.61-5.09 4.06-5.82 3.74-.87-.37-.13-1.62.37-2.43l.1-.19 7.38-12.86h-3.78l-7.34 12.7c-.5.46-1.3.89-2.03 1.28-.44.24-.86.46-1.16.66.47-1.41.72-3.12.99-4.96.4-2.86.87-6.05 2.28-8.99l-2.83-1.52c-1.56 2.14-10.28 13.7-13.7 17.69.33.47.87.94 1.42 1.3a496.19 496.19 0 0010.68-13.5 23 23 0 00-.98 4.62c-.47 3.24-.92 6.34-3.3 6.34-1.28 0-1.79-1.38-1.79-1.38l-2.36 1.24s.7 3.05 4.14 3.05c.33 0 .64-.03.96-.06l.1-.01h.02l.01-.01.02-.01.03-.02h.02a16.1 16.1 0 006.36-2.37c0 1.54.92 2.48 2.5 2.48 2.07 0 4.4-1.9 6.21-3.63-.36 2.03.84 3.63 3.24 3.63 2.34 0 4.96-1.89 7.44-4.36.03 2.5 1.96 4.36 5.12 4.36 3.07 0 6.12-1.71 8.74-4.02l-2.1 3.66h3.81l4.33-7.52v3.01c0 3.23.61 4.87 3.67 4.87 3.12 0 6.72-3.34 9.84-6.98l-.02-.03.05.03a95.42 95.42 0 004.5-5.73l.87-1.17c-.5 1.32-.74 2.99-.97 4.63-.47 3.23-.92 6.34-3.31 6.34-1.27 0-1.78-1.38-1.78-1.38l-2.37 1.24s.7 3.05 4.15 3.05c.32 0 .62-.03.95-.07h.1a.1.1 0 00.05-.02.13.13 0 01.06-.02c3.85-.51 7.66-3.56 10.5-6.87zm-114.78-1.09h.19l2.76-4.72c2.29-3.92-1.35-5.7-4-1.2l-1.81 3.1-2.88 4.97c-2.25 3.92 2.08 4.5 3.86 1.45l.03-.07c-.22-.36-.36-.8-.36-1.27 0-1.24.98-2.25 2.22-2.25zm-25.24 14.14c-.8 1.41-2.07 1.2-2.07.18 0-.98.9-2.1 3.81-3.23l-1.74 3.05zm-34.85-8.43c1.56 0 3.82-1.7 6.1-5.3l2.95-5.16c1.85-3.42-2.18-4.33-4.22-.8l-5.26 9.19c-.87 1.49-.4 2.07.43 2.07zm-5.95-20.05c1.13-1.93 2.36-2.77 3.42-2.77 1.42 0 2.07.95 2.07 2.33 0 3.52-4.37 10.83-10.17 9.88h-.77l5.45-9.44zm92.53 14.38l.25-.29c.51.22 1.16.8 1.42 1.31-3.13 3.63-6.72 6.98-9.85 6.98-3.05 0-4.18-2.58-2.58-5.38l4.9-8.54c1.64-2.8-.94-3.74-6.72 3.5l-5.77 10.06h-3.82l2.54-4.4a11.02 11.02 0 01-4.93 1.45h-.84c-4.23 5.36-11.26 4.16-10.74-1.12-3.25 3.22-6.37 5.18-9.53 6.17l-2.9 4.98c-2.72 4.65-8.28 3.89-8.28.25 0-2.83 3.2-4.94 8.32-6.46l2.07-3.56c-1.71 1.52-3.78 3.05-5.6 3.05-1.88 0-2.84-1.33-2.39-3.41-2.17 1.99-4.4 3.4-6.44 3.4-3.05 0-4.17-2.57-2.57-5.37l4.9-8.53c1.63-2.8-.95-3.75-6.72 3.49l-5.78 10.06h-3.81l1.39-2.41c-1.94 1.65-3.91 2.77-5.72 2.77-1.92 0-3.09-1.01-3.27-2.47-1.82 1.49-3.7 2.47-5.23 2.47-2.68 0-3.87-1.98-3.05-4.36l-.22.22c-2.5 2.37-4.36 4.14-8.46 4.14-5.34 0-6.9-5.08-4.25-9.66l1.13-1.97a8.53 8.53 0 01-4.76-7.51c0-2.55 1.2-5.13 3.88-7.05l1.24 2.21a6 6 0 00-2.44 4.76c0 2.1 1.17 4.22 3.38 5.38l5.9-10.14c1.7-2.98 4.17-4.43 6.24-4.43 2.8 0 5.01 2.22 5.01 5.63 0 1.49-.47 3.23-1.52 5.09-2.98 5.2-7.56 7.26-11.6 7.26-.75 0-1.45-.07-2.14-.18l-1.05 1.85c-2.25 3.85-.69 6.43 1.89 6.43 3.67 0 5.76-2.42 8.41-5.5l.15-.17.25-.29c.27.08.57.26.83.5l3.9-6.75c1.6-2.76 4.44-4.35 6.47-4.35 2.47 0 4.1 2.21 3.96 3.8h2.14l-6.1 10.69c-.87 1.5-.4 2.07.44 2.07 1.67 0 4.32-2.5 7.04-5.67l.26-.29.36.2 6.03-10.44h3.78l-1.41 2.47c1.89-1.96 3.6-2.84 5.23-2.84 2.1 0 3.67 2.08 2.03 4.95l-5.45 9.55c-.87 1.5-.4 2.07.44 2.07 1.67 0 4.32-2.5 7.05-5.67l.25-.29c.12.06.23.12.33.19l6.03-10.43h3.78l-7.38 12.86-.04.08-.07.1c-.49.82-1.23 2.07-.36 2.44.73.32 2.98-1.17 5.89-3.86l6.68-11.62h3.78l-10.36 17.73c2.98-1.28 5.63-3.6 8.76-7.2l.25-.29c.12.06.24.12.34.2l1.63-2.78 1.85-3.23c2.18-3.78 4.43-4.94 7.34-4.94 3.56 0 5.66 3.74 3.38 7.7l-3.56 6.14c1.88-.04 4-.95 5.7-2.8l.25-.29c.17.08.34.18.49.29l6.08-10.53h3.78l-1.41 2.47c1.89-1.97 3.6-2.84 5.23-2.84 2.1 0 3.67 2.07 2.03 4.94l-5.45 9.56c-.87 1.49-.4 2.07.44 2.07 1.67 0 4.32-2.5 7.05-5.67zm118.88-35.86c-2.29 3.74-4.62 5.52-6.21 5.52-.84 0-1.3-.58-.44-2.07l5.27-9.2c2.03-3.52 6.06-2.6 4.21.8h.04l-2.87 4.95zm-42.3 5.52c1.57 0 3.82-1.7 6.11-5.3l2.94-5.16c1.86-3.42-2.18-4.33-4.21-.8l-5.27 9.19c-.87 1.49-.4 2.07.44 2.07zm-33.8 8.43c-.8 1.41-2.07 1.2-2.07.18 0-.98.87-2.1 3.78-3.23l-1.71 3.05zm11.44-31.24c-1.05 0-2.29.83-3.42 2.76l-5.44 9.44h.76c9.63 2.23 14.1-12.2 8.1-12.2zm74.25 16.85l-.26.3c-2.72 3.15-5.37 5.66-7.04 5.66-.84 0-1.31-.58-.44-2.07l12.79-22.13h-3.78l-5.56 9.6a4.1 4.1 0 00-3.45-1.97c-2.04 0-4.87 1.6-6.47 4.36l-3.7 6.38a.8.8 0 01-.03-.02l-.03-.01-.17-.1-.25.3c-2.73 3.15-5 5.66-6.68 5.66-.83 0-1.3-.58-.43-2.07l5.45-9.56c1.63-2.87.07-4.94-2.04-4.94-1.63 0-3.34.87-5.23 2.84l1.42-2.47h-3.78l-6.04 10.44a2.66 2.66 0 00-.36-.2l-.25.3c-2.73 3.15-5.38 5.66-7.05 5.66-.84 0-1.3-.58-.44-2.07l6.1-10.68h-2.14c.15-1.6-1.49-3.82-3.96-3.82-2.03 0-4.87 1.6-6.47 4.36l-3.65 6.3-.2.24c-2.73 3.16-5.75 5.66-7.42 5.66-.84 0-1.31-.57-.44-2.06l3.78-6.62c1.3-2.29.69-3.63-.55-5.12l-2.1-2.54c-.55-.7-.55-1.46.21-2.18l-1.96-2.15c-2.14 1.93-2.32 4.07-.98 5.82l.33.43-.13.2c-1.66 2.33-3.86 5.44-6.27 8.27a2.63 2.63 0 00.26.32c-3.11 3.58-5.76 5.9-8.73 7.16l4.8-8.21h-3.78l-.4.66c-2 3.52-4.29 6.03-7.23 6.03-2.58 0-3.05-2.58-.8-6.43l1.05-1.86c.71.12 1.43.18 2.15.19 13.44 0 19.94-17.99 8.1-17.99-2.07 0-4.54 1.46-6.25 4.44L284 291.06a6.08 6.08 0 01-3.37-5.38 6 6 0 012.43-4.75l-1.24-2.22c-2.69 1.93-3.88 4.5-3.88 7.05 0 3.01 1.7 5.92 4.76 7.52l-1.13 1.96c-2.65 4.58-2.18 9.66 3.16 9.66 1.6 0 2.94-.47 4.1-1.2l-.98 1.71c-5.12 1.56-8.28 3.63-8.28 6.47 0 3.63 5.56 4.4 8.28-.26l2.91-4.97c3.93-1.24 7.78-3.93 11.92-8.72a2.17 2.17 0 00-.24-.36 134.2 134.2 0 005.95-7.74l.51.62c.47.61.65 1.38.22 2.14l-4 6.94c-1.6 2.8-.47 5.37 2.58 5.37 1.9 0 4.35-1.24 6.39-3.02-.05 1.74 1.14 3.02 3.3 3.02 1.52 0 3.41-.98 5.23-2.47.18 1.45 1.34 2.47 3.26 2.47 1.81 0 3.78-1.12 5.73-2.77l-1.4 2.4h3.82l5.77-10.06c5.78-7.23 8.36-6.28 6.72-3.48l-4.9 8.54c-1.6 2.8-.47 5.37 2.58 5.37 2 0 3.83-1.38 5.98-3.33-.2 1.9 1 3.33 3.28 3.33 1.53 0 3.42-.98 5.23-2.47.19 1.46 1.35 2.47 3.27 2.47 3.13 0 6.72-3.34 9.85-6.98a3.3 3.3 0 00-1.42-1.3zm-108.5-4.5c2.25-3.93-1.6-4.54-3.78-.8l-2.44 4.25c1.42.5 3.86.58 5.67-2.5l.55-.95zm-6.83 12.79c4.28 0 8.54-3.35 11.66-6.98a3.27 3.27 0 00-1.42-1.3l-.25.28c-2.73 3.16-6.21 5.67-8.87 5.67-2.32 0-3.7-1.45-1.96-4.5l.36-.66c2.44 1.02 7.02.55 9.85-4.36l.54-.94c2.04-3.5.08-6.1-3.01-6.1-3.05 0-5.49 1.6-7.09 4.35l-3.67 6.32-.12-.07-.25.3c-2.72 3.15-5.38 5.66-7.05 5.66-.83 0-1.3-.58-.44-2.07l5.46-9.56c1.63-2.87.07-4.94-2.04-4.94-1.64 0-3.38.91-5.27 2.87l6.03-10.5h-3.78l-10.65 18.5c-.14-.1-.28-.19-.43-.26l-.26.3c-2.72 3.15-5.37 5.66-7.05 5.66-.83 0-1.3-.58-.43-2.07l8.1-14.13h3.09l1.09-1.82h-3.13l3.56-6.18h-3.77l-3.56 6.18h-3.42l-1.09 1.81h3.45l-7.6 13.16c-1.59 2.8-.46 5.38 2.59 5.38 1.88 0 3.92-1.22 5.94-2.97l-1.5 2.6h3.81l5.74-10c5.82-7.3 8.4-6.35 6.76-3.55l-4.9 8.54c-1.6 2.8-.48 5.37 2.58 5.37 2.3 0 4.84-1.8 7.27-4.2.11 2.43 2.03 4.2 5.13 4.2zm-123.7-12.8c2.26-3.92-1.6-4.54-3.77-.8l-2.44 4.26c1.42.5 3.85.58 5.67-2.51l.54-.94zm19.34 8.4l5.27-9.2c2.04-3.52 6.07-2.61 4.22.8l-2.95 5.17c-2.28 3.59-4.54 5.3-6.1 5.3-.83 0-1.3-.58-.44-2.07zm57.76-8.4c2.26-3.92-1.6-4.54-3.77-.8l-2.44 4.26c1.42.5 3.86.58 5.67-2.51l.54-.94zm-61.58 8.73c-.63 2.24.57 4.06 3.14 4.06 1.52 0 3.41-.98 5.22-2.47.19 1.46 1.35 2.47 3.28 2.47 2 0 4.21-1.39 6.36-3.34-.41 2.04.54 3.34 2.4 3.34 2.08 0 4.4-1.89 6.22-3.63-.37 2.04.83 3.63 3.23 3.63 3.13 0 6.72-3.34 9.85-6.97a.72.72 0 00-.06-.09l-.04-.06a99.9 99.9 0 004.33-5.53l.91-1.22a23 23 0 00-.98 4.63c-.47 3.23-.91 6.34-3.3 6.34-1.27 0-1.78-1.38-1.78-1.38l-2.37 1.23s.7 3.05 4.14 3.05c.33 0 .62-.03.94-.06h.12c.02 0 .04-.02.05-.03l.06-.01c2.77-.37 5.53-2.06 7.91-4.21.06 2.48 1.99 4.31 5.13 4.31 4.28 0 8.53-3.34 11.66-6.97a3.27 3.27 0 00-1.42-1.31l-.25.3c-2.73 3.15-6.22 5.66-8.87 5.66-2.32 0-3.7-1.45-1.96-4.5l.37-.66c2.43 1.02 7 .55 9.84-4.36l.54-.94c2.04-3.5.08-6.1-3.01-6.1-3.05 0-5.49 1.6-7.08 4.35l-3.67 6.3-.05-.03-.06-.02-.25.29a23.6 23.6 0 01-4.54 4.1c.47-1.4.71-3.11.98-4.96.41-2.86.88-6.05 2.29-8.99l-2.84-1.52-1.02 1.42a147.26 147.26 0 01-7.37 9.66l.04.05.02.02.05.07-.13.15c-2.73 3.16-5.38 5.67-7.05 5.67-.84 0-1.3-.58-.44-2.07l8.07-14.14h-3.78L175 298.12c-2.87 2.61-5.09 4.06-5.82 3.74-.87-.37-.12-1.62.37-2.44l.01-.01.06-.1.04-.07 7.37-12.86h-3.78l-6.01 10.4-.03-.01c-.09-.06-.18-.1-.26-.14l-.25.29c-2.73 3.16-5.38 5.66-7.05 5.66-.83 0-1.3-.58-.44-2.07l6.1-10.68h-2.14c.15-1.6-1.48-3.81-3.96-3.81-2.03 0-4.86 1.6-6.46 4.36l-3.83 6.6a2.8 2.8 0 00-.58-.36l-.25.3c-2.73 3.15-5.86 5.66-8.51 5.66-2.33 0-3.7-1.45-1.97-4.5l3.9-6.76c2.17-3.74 6.02-3.12 3.77.8l-.55.94h3.1l.54-.94c2.03-3.49.07-6.1-3.02-6.1-3.05 0-5.13 1.6-6.73 4.36l-3.75 6.44a2.4 2.4 0 00-.35-.2l-.25.3c-2.73 3.15-5.95 5.66-8.6 5.66-2.33 0-3.7-1.45-1.96-4.5l.36-.66c2.43 1.02 7.01.55 9.84-4.35l.55-.95c2.03-3.49.07-6.1-3.02-6.1-3.05 0-5.48 1.6-7.08 4.36l-3.96 6.79c-2.36 4.03-.33 7.74 4.14 7.74 3.33 0 6.01-2.02 8.79-4.62-.1 2.64 1.86 4.62 5.12 4.62 3.09 0 5.8-1.73 8.44-4.06zm-33.82-19.19l-3.05 5.23c3.85-.07 6-.9 7.45-3.63 1.89-3.56-1.64-6.36-4.4-1.6zm-7.12 22.45c-2.25 0-4.03-.5-5.45-1.3.66-.77 1.3-1.71 1.9-2.7l6.35-11 1.01.1c8.87 1.86 5.34 14.9-3.8 14.9zm9.34-15.47c7.63-2.58 8.2-12.14.69-12.14-2.07 0-4.54 1.46-6.25 4.44l-10.17 17.58c-.42.75-.91 1.47-1.46 2.14-2.61-3.6-1.85-8.97 1.82-11.33l-1.53-1.93c-7.92 5.05-5.6 19.62 7.63 19.62 11.3 0 16.53-13.55 9.27-18.38z" fill="#fff"/></svg>